<svg xmlns="http://www.w3.org/2000/svg" width="512" height="512" fill="none"><path fill="#065" d="M0 0h512v512H0z"/><path fill="#fff" d="m199.484 346.738 1.22-23.163h-1.464l-27.338 38.888h-5.858l-28.557-38.888h-1.221l1.465 20.825V426H106V277.25h33.928l29.289 41.225h.977l29.046-41.225h33.683V426h-33.439v-79.262ZM312.516 356.513l-1.22 23.162h1.464l27.338-38.887h5.858l28.557 38.887h1.221l-1.465-20.825v-81.6H406V426h-33.928l-29.289-41.225h-.977L312.76 426h-33.683V277.25h33.439v79.263ZM227.259 121.741c0 3.581-.601 7.162-1.802 10.743-1.03 3.581-2.832 6.887-5.406 9.917-2.575 2.892-5.922 5.509-10.041 7.851-4.119 2.203-9.097 3.856-14.932 4.958v1.24c5.149.688 10.04 1.859 14.675 3.512 4.634 1.653 8.667 3.925 12.1 6.818 3.432 2.892 6.093 6.404 7.981 10.536 2.059 4.132 3.089 9.021 3.089 14.668 0 7.438-1.974 13.911-5.921 19.421-3.948 5.371-9.268 9.778-15.962 13.222-6.522 3.443-13.988 5.991-22.398 7.644-8.41 1.653-17.078 2.479-26.003 2.479h-11.328c-4.462 0-9.354-.138-14.674-.413a330.17 330.17 0 0 1-15.962-.827c-5.321-.413-10.213-1.033-14.675-1.859V89.099c3.261-.413 6.951-.826 11.07-1.24 4.291-.413 8.84-.757 13.645-1.033 4.806-.275 9.698-.482 14.675-.62A568.286 568.286 0 0 1 160.58 86c8.41 0 16.562.55 24.457 1.653 8.067.964 15.19 2.754 21.369 5.371 6.35 2.617 11.413 6.267 15.189 10.95 3.776 4.683 5.664 10.605 5.664 17.767Zm-64.362 89.664c4.29 0 8.41-.414 12.357-1.24 4.119-.826 7.724-2.066 10.813-3.719 3.09-1.79 5.578-3.994 7.466-6.611 1.888-2.617 2.832-5.716 2.832-9.297 0-4.545-1.115-8.126-3.347-10.743-2.231-2.617-5.149-4.614-8.753-5.991-3.604-1.515-7.638-2.479-12.1-2.893a145.205 145.205 0 0 0-13.388-.619h-18.794v39.873c.859.275 2.232.482 4.12.62 1.888.137 3.861.275 5.921.413 2.231 0 4.463.069 6.694.207h6.179Zm-11.586-62.599c2.403 0 5.149-.069 8.239-.207 3.261-.138 5.921-.344 7.981-.62 6.522-1.653 12.1-4.132 16.734-7.437 4.806-3.306 7.209-7.644 7.209-13.016 0-3.581-.859-6.542-2.575-8.884-1.716-2.341-4.033-4.2-6.951-5.578-2.746-1.377-5.921-2.341-9.526-2.892-3.604-.551-7.38-.827-11.328-.827-4.462 0-8.581.069-12.357.207-3.776.138-6.694.344-8.754.62v38.634h11.328ZM279.077 89.562a246.016 246.016 0 0 1 12.006-1.467 216.42 216.42 0 0 1 12.986-1.257c4.411-.28 8.658-.489 12.742-.628 4.084-.14 7.841-.21 11.271-.21 8.004 0 15.845.698 23.522 2.095 7.841 1.257 14.784 3.492 20.828 6.704 6.207 3.213 11.107 7.543 14.701 12.99 3.757 5.447 5.636 12.221 5.636 20.322 0 6.006-.735 11.243-2.206 15.713-1.306 4.33-3.185 8.171-5.635 11.523-2.45 3.352-5.472 6.285-9.066 8.799-3.43 2.375-7.188 4.539-11.271 6.495L406 234.75h-38.714l-34.549-57.405h-20.092v57.405h-33.568V89.562Zm51.455 21.998c-3.43 0-6.86.07-10.291.209-3.267.14-5.799.419-7.596.838v42.53h13.232c9.311 0 16.906-1.815 22.787-5.447 5.881-3.631 8.821-9.637 8.821-18.017 0-6.286-2.287-11.174-6.861-14.666-4.574-3.631-11.271-5.447-20.092-5.447Z"/></svg>